name rise49.5252peak65.1548fall88.8305.mot
datacolumns 19
datarows 18
range 5.59497800000000 5.62331100000000
endheader
time	ground_force1_vx	ground_force1_vy	ground_force1_vz	ground_force1_px	ground_force1_py	ground_force1_pz	ground_force2_vx	ground_force2_vy	ground_force2_vz	ground_force2_px	ground_force2_py	ground_force2_pz	ground_torque1_x	ground_torque1_y	ground_torque1_z	ground_torque2_x	ground_torque2_y	ground_torque2_z	
5.59497800000000	42.49909600000000	702.46686799999998	56.08603800000000	0.34216300000000	0.00000000000000	0.12664000000000	-0.16853700000000	7.25232800000000	0.63155300000000	0.00000000000000	0.00000000000000	0.00000000000000	0.00000000000000	26.57053900000000	0.00000000000000	0.00000000000000	0.00132200000000	0.00000000000000	
5.59663800000000	41.96492200000000	707.65454299999999	56.39402000000000	0.34060700000000	0.00000000000000	0.12663100000000	0.11739800000000	3.57325100000000	0.37186800000000	0.00000000000000	0.00000000000000	0.00000000000000	0.00000000000000	26.73823800000000	0.00000000000000	0.00000000000000	0.01851800000000	0.00000000000000	
5.59830900000000	41.44287100000000	712.78333899999996	56.69953000000000	0.33912500000000	0.00000000000000	0.12662000000000	0.00000000000000	0.00000000000000	0.00000000000000	0.00000000000000	0.00000000000000	0.00000000000000	0.00000000000000	26.90569400000000	0.00000000000000	0.00000000000000	0.00000000000000	0.00000000000000	
5.59997800000000	40.93331100000000	717.84589700000004	57.00221800000000	0.33771700000000	0.00000000000000	0.12660500000000	0.00000000000000	0.00000000000000	0.00000000000000	0.00000000000000	0.00000000000000	0.00000000000000	0.00000000000000	27.07278300000000	0.00000000000000	0.00000000000000	0.00000000000000	0.00000000000000	
5.60164700000000	40.43649800000000	722.83481200000006	57.30166100000000	0.33638300000000	0.00000000000000	0.12658800000000	0.00000000000000	0.00000000000000	0.00000000000000	0.00000000000000	0.00000000000000	0.00000000000000	0.00000000000000	27.23933600000000	0.00000000000000	0.00000000000000	0.00000000000000	0.00000000000000	
5.60330400000000	39.95258400000000	727.74267199999997	57.59737200000000	0.33512300000000	0.00000000000000	0.12656900000000	0.00000000000000	0.00000000000000	0.00000000000000	0.00000000000000	0.00000000000000	0.00000000000000	0.00000000000000	27.40514300000000	0.00000000000000	0.00000000000000	0.00000000000000	0.00000000000000	
5.60497000000000	39.48161700000000	732.56209100000001	57.88880200000000	0.33393500000000	0.00000000000000	0.12654600000000	0.00000000000000	0.00000000000000	0.00000000000000	0.00000000000000	0.00000000000000	0.00000000000000	0.00000000000000	27.56995300000000	0.00000000000000	0.00000000000000	0.00000000000000	0.00000000000000	
5.60664000000000	39.02354900000000	737.28574500000002	58.17534700000000	0.33282000000000	0.00000000000000	0.12652100000000	0.00000000000000	0.00000000000000	0.00000000000000	0.00000000000000	0.00000000000000	0.00000000000000	0.00000000000000	27.73348100000000	0.00000000000000	0.00000000000000	0.00000000000000	0.00000000000000	
5.60830300000000	38.57823600000000	741.90640099999996	58.45635200000000	0.33177600000000	0.00000000000000	0.12649300000000	0.00000000000000	0.00000000000000	0.00000000000000	0.00000000000000	0.00000000000000	0.00000000000000	0.00000000000000	27.89540400000000	0.00000000000000	0.00000000000000	0.00000000000000	0.00000000000000	
5.60997700000000	38.14544800000000	746.41695800000002	58.73112000000000	0.33080300000000	0.00000000000000	0.12646200000000	0.00000000000000	0.00000000000000	0.00000000000000	0.00000000000000	0.00000000000000	0.00000000000000	0.00000000000000	28.05537200000000	0.00000000000000	0.00000000000000	0.00000000000000	0.00000000000000	
5.61163700000000	37.72486900000000	750.81047200000000	58.99891400000000	0.32989700000000	0.00000000000000	0.12642800000000	0.00000000000000	0.00000000000000	0.00000000000000	0.00000000000000	0.00000000000000	0.00000000000000	0.00000000000000	28.21300700000000	0.00000000000000	0.00000000000000	0.00000000000000	0.00000000000000	
5.61331000000000	37.31610900000000	755.08019000000002	59.25896800000000	0.32905800000000	0.00000000000000	0.12639200000000	0.00000000000000	0.00000000000000	0.00000000000000	0.00000000000000	0.00000000000000	0.00000000000000	0.00000000000000	28.36790400000000	0.00000000000000	0.00000000000000	0.00000000000000	0.00000000000000	
5.61497100000000	36.91870500000000	759.21958199999995	59.51048900000000	0.32828400000000	0.00000000000000	0.12635200000000	0.00000000000000	0.00000000000000	0.00000000000000	0.00000000000000	0.00000000000000	0.00000000000000	0.00000000000000	28.51964100000000	0.00000000000000	0.00000000000000	0.00000000000000	0.00000000000000	
5.61664400000000	36.53212700000000	763.22236799999996	59.75266700000000	0.32757100000000	0.00000000000000	0.12630900000000	0.00000000000000	0.00000000000000	0.00000000000000	0.00000000000000	0.00000000000000	0.00000000000000	0.00000000000000	28.66777500000000	0.00000000000000	0.00000000000000	0.00000000000000	0.00000000000000	
5.61831000000000	36.15578700000000	767.08254899999997	59.98468200000000	0.32691900000000	0.00000000000000	0.12626400000000	0.00000000000000	0.00000000000000	0.00000000000000	0.00000000000000	0.00000000000000	0.00000000000000	0.00000000000000	28.81185200000000	0.00000000000000	0.00000000000000	0.00000000000000	0.00000000000000	
5.61997000000000	35.78904700000000	770.79442800000004	60.20570600000000	0.32632500000000	0.00000000000000	0.12621500000000	0.00000000000000	0.00000000000000	0.00000000000000	0.00000000000000	0.00000000000000	0.00000000000000	0.00000000000000	28.95140500000000	0.00000000000000	0.00000000000000	0.00000000000000	0.00000000000000	
5.62164400000000	35.43121800000000	774.35263899999995	60.41491600000000	0.32578500000000	0.00000000000000	0.12616400000000	0.00000000000000	0.00000000000000	0.00000000000000	0.00000000000000	0.00000000000000	0.00000000000000	0.00000000000000	29.08596000000000	0.00000000000000	0.00000000000000	0.00000000000000	0.00000000000000	
5.62331100000000	35.08157600000000	777.75216799999998	60.61149700000000	0.32529800000000	0.00000000000000	0.12611000000000	0.00000000000000	0.00000000000000	0.00000000000000	0.00000000000000	0.00000000000000	0.00000000000000	0.00000000000000	29.21504100000000	0.00000000000000	0.00000000000000	0.00000000000000	0.00000000000000	
